PathFileType	4	(X/Y/Z)	SUBJ63_3_walk_RCNL2025.trc
DataRate	CameraRate	NumFrames	NumMarkers	Units	OrigDataRate	OrigDataStartFrame	OrigNumFrames
100	100	12	25	mm	100	200	228
Frame#	Time	R_Shoulder			L_Shoulder			C7			J_Notch			R_Elbow			L_Elbow			R_Wrist			L_Wrist			R_Asis			L_Asis			Sacral			Thoracic			Sternum			R_Thigh_Lateral			R_Knee_Lateral			R_Shank_Lateral			R_Ankle_Lateral			R_Heel			R_Toe			L_Thigh_Lateral			L_Knee_Lateral			L_Shank_Lateral			L_Ankle_Lateral			L_Heel			L_Toe		
		X1	Y1	Z1	X2	Y2	Z2	X3	Y3	Z3	X4	Y4	Z4	X5	Y5	Z5	X6	Y6	Z6	X7	Y7	Z7	X8	Y8	Z8	X9	Y9	Z9	X10	Y10	Z10	X11	Y11	Z11	X12	Y12	Z12	X13	Y13	Z13	X14	Y14	Z14	X15	Y15	Z15	X16	Y16	Z16	X17	Y17	Z17	X18	Y18	Z18	X19	Y19	Z19	X20	Y20	Z20	X21	Y21	Z21	X22	Y22	Z22	X23	Y23	Z23	X24	Y24	Z24	X25	Y25	Z25
200	1.99000000	1930.580078	1252.981079	-107.679558	1938.693604	1267.283813	-439.294739	1852.095337	1323.432007	-278.317841	1975.418213	1216.889771	-277.091888	1889.376709	976.117249	0.256586	1911.776245	972.878296	-541.648743	1967.564941	764.466736	46.400508	2065.586548	806.931763	-557.922455	1999.748535	823.140076	-162.872101	1993.523071	798.816895	-410.683807	1774.096924	810.874146	-291.458252	1772.450562	1140.727417	-284.981415	2027.449463	1036.892822	-275.993164	2032.680664	488.058929	-108.461716	2047.081421	435.338745	-158.172119	2053.165527	253.731415	-118.949272	2048.405518	49.325500	-204.223068	2003.067993	49.565540	-256.141998	2162.290039	37.384609	-208.308395	1875.552734	436.125336	-517.926331	1877.475464	406.020996	-453.864349	1730.885132	287.078430	-479.913818	1571.694214	180.388336	-396.734955	1552.304199	221.747833	-341.918701	1609.039551	64.514503	-387.014496
201	2.00000000	1947.558716	1254.732910	-106.827629	1953.562256	1269.033813	-438.314819	1867.578247	1325.547852	-276.846619	1990.804199	1218.545166	-276.209534	1907.055054	977.696228	0.909928	1923.009155	974.808960	-540.646240	1986.237732	766.191620	46.057536	2071.539307	804.185181	-559.884369	2014.404541	825.223145	-161.619888	2007.506714	800.099243	-408.987976	1788.163086	812.793884	-289.488770	1787.727173	1143.139893	-283.342468	2042.244629	1038.239502	-275.444489	2040.978638	488.177032	-107.377220	2054.297119	435.345947	-157.230423	2056.413086	253.444687	-118.446724	2048.563965	49.449425	-204.473724	2003.236572	49.869862	-256.123962	2162.432617	37.279690	-208.553665	1904.853394	435.350098	-518.638489	1906.809570	405.479645	-454.447052	1760.285522	288.570740	-480.769653	1597.250488	187.699799	-397.950439	1578.736572	228.696396	-342.100922	1631.559692	70.980186	-391.658295
202	2.01000000	1964.588745	1256.660400	-106.136841	1968.190552	1270.896484	-437.536743	1882.907471	1327.890137	-275.411011	2006.036255	1220.369263	-275.548035	1924.808350	979.515808	1.518284	1933.880493	976.863647	-539.711670	2005.068665	768.172638	45.575040	2076.752686	801.566498	-561.901642	2028.938354	827.339722	-160.620956	2021.362793	801.767334	-407.781158	1801.996948	815.188782	-287.358795	1802.865601	1145.766602	-281.689606	2056.768311	1039.664673	-275.168793	2048.773926	488.379425	-106.493874	2060.657471	435.363525	-156.492050	2058.756348	253.205292	-118.083641	2048.552246	49.533714	-204.716904	2003.252686	50.023697	-256.020477	2162.451660	37.348106	-208.722824	1934.114868	435.756714	-518.912781	1936.240234	406.056274	-454.615326	1790.540649	290.101044	-481.159241	1624.899536	193.287445	-398.822968	1606.521606	233.293732	-341.814026	1658.186157	76.731590	-396.322174
203	2.02000000	1981.639404	1258.763794	-105.608070	1982.557007	1272.855591	-436.962402	1898.067871	1330.424683	-274.020691	2021.109253	1222.359375	-275.110535	1942.636597	981.585144	2.073106	1944.387817	979.035217	-538.835999	2024.016052	770.403503	44.932946	2081.272705	799.152466	-563.949615	2043.361328	829.435791	-159.853088	2035.127930	803.843689	-407.066559	1815.662109	817.982300	-285.137146	1817.872314	1148.557861	-280.017334	2071.055420	1041.204102	-275.164337	2056.272217	488.695007	-105.808723	2066.371338	435.422089	-155.963699	2060.665283	253.029999	-117.840500	2048.447754	49.590691	-204.942871	2003.159302	50.070431	-255.839722	2162.403320	37.493477	-208.830490	1963.019531	437.379486	-518.772217	1965.550903	407.784790	-454.421722	1821.328491	291.780975	-481.137360	1654.451660	196.884171	-399.396484	1635.481079	235.446930	-341.247620	1688.633301	81.364578	-400.631561
204	2.03000000	1998.656738	1261.036499	-105.244026	1996.647705	1274.892822	-436.582794	1913.069092	1333.099121	-272.714935	2036.024658	1224.498657	-274.889343	1960.528931	983.899109	2.568974	1954.531128	981.314331	-538.006226	2043.055725	772.877197	44.125461	2085.154785	797.008362	-566.009735	2057.675781	831.459839	-159.256927	2048.848389	806.343384	-406.775269	1829.231567	821.072998	-282.905029	1832.756836	1151.443115	-278.328339	2085.143066	1042.886353	-275.411011	2063.568115	489.116302	-105.315056	2071.602783	435.529388	-155.636185	2062.469482	252.926086	-117.699112	2048.311768	49.636086	-205.146179	2002.994629	50.056450	-255.607086	2162.331055	37.654610	-208.892929	1991.382935	440.103851	-518.266357	1994.566528	410.591553	-453.913574	1852.392090	293.660492	-480.773987	1685.692383	198.337479	-399.706451	1665.469482	235.179855	-340.570435	1722.472778	84.598404	-404.251648
205	2.04000000	2015.568481	1263.457397	-105.047829	2010.453125	1276.981445	-436.384216	1927.943237	1335.837158	-271.550171	2050.788818	1226.755981	-274.869019	1978.464600	986.431580	3.006058	1964.314331	983.677124	-537.204468	2062.178101	775.577393	43.162885	2088.466919	795.180359	-568.069031	2071.879150	833.367981	-158.751221	2062.570312	809.255676	-406.784454	1842.774780	824.346313	-280.744751	1847.531982	1154.336304	-276.629395	2099.069092	1044.725830	-275.872620	2070.669434	489.602295	-105.001228	2076.474365	435.676727	-155.486465	2064.331543	252.895248	-117.643333	2048.187744	49.684090	-205.326050	2002.791138	50.023342	-255.356552	2162.265137	37.797955	-208.926468	2019.109497	443.729950	-517.453125	2023.135010	414.320953	-453.128967	1883.537598	295.709229	-480.140625	1718.409668	197.610611	-399.771393	1696.383423	232.598511	-339.894714	1759.210938	86.291451	-406.931610
206	2.05000000	2032.302368	1265.988770	-105.016144	2023.966309	1279.080688	-436.351898	1942.724976	1338.538086	-270.568878	2065.411865	1229.085693	-275.030090	1996.418091	989.132812	3.392308	1973.744141	986.079895	-536.409119	2081.380859	778.470062	42.068903	2091.288818	793.690308	-570.119720	2085.970947	835.126038	-158.251648	2076.331299	812.533386	-406.940033	1856.346680	827.679382	-278.734406	1862.213989	1157.149170	-274.927155	2112.873535	1046.718628	-276.502289	2077.548340	490.095398	-104.849068	2081.072510	435.846558	-155.483780	2066.265381	252.932892	-117.660492	2048.102051	49.744965	-205.486298	2002.576782	50.004158	-255.128098	2162.225586	37.909008	-208.945969	2046.136841	448.025696	-516.383545	2051.114746	418.765778	-452.094666	1914.618774	297.814575	-479.296997	1752.419800	194.767365	-399.594177	1728.169434	227.858322	-339.268768	1798.349243	86.435692	-408.531464
207	2.06000000	2048.805420	1268.576416	-105.132912	2037.184082	1281.134277	-436.468536	1957.433228	1341.090332	-269.777832	2079.906494	1231.427979	-275.351654	2014.362061	991.931458	3.744409	1982.832153	988.461182	-535.595703	2100.663452	781.500671	40.876896	2093.708862	792.533203	-572.160187	2099.955566	836.708069	-157.687256	2090.159912	816.090881	-407.079956	1869.984985	830.949829	-276.946228	1876.819946	1159.799072	-273.224304	2126.596436	1048.840942	-277.250519	2084.183594	490.544891	-104.834000	2085.449951	436.019226	-155.596588	2068.189209	253.029633	-117.741776	2048.065918	49.823841	-205.635483	2002.377197	50.022087	-254.968201	2162.224121	37.984261	-208.962540	2072.410400	452.745972	-515.096375	2078.377197	423.694580	-450.826294	1945.529785	299.798309	-478.287048	1787.578979	189.951202	-399.168732	1760.825073	221.138504	-338.686066	1839.427124	85.138611	-409.037109
208	2.07000000	2065.051025	1271.153931	-105.368858	2050.111816	1283.075195	-436.711578	1972.068115	1343.388794	-269.151031	2094.288330	1233.710449	-275.812592	2032.270752	994.739685	4.085697	1991.596069	990.748718	-534.739502	2120.025146	784.597137	39.626482	2095.818726	791.678009	-574.194733	2113.838867	838.090698	-157.010040	2104.073486	819.808167	-407.058533	1883.712402	834.044434	-275.444855	1891.363892	1162.210327	-271.517395	2140.276611	1051.050171	-278.071777	2090.575684	490.922058	-104.928535	2089.635010	436.179504	-155.796051	2069.993652	253.178177	-117.879425	2048.082520	49.922318	-205.786255	2002.218018	50.090858	-254.928482	2162.263184	38.024677	-208.982117	2097.894043	457.644073	-513.620483	2104.815186	428.871216	-449.330719	1976.207397	301.442108	-477.142273	1823.787720	183.365494	-398.490021	1794.396240	212.627838	-338.103760	1882.050171	82.598000	-408.556763
209	2.08000000	2081.036865	1273.646973	-105.687119	2062.764404	1284.832642	-437.053070	1986.616211	1345.349243	-268.644501	2108.573242	1235.853394	-276.391632	2050.123047	997.460815	4.441635	2000.063721	992.867249	-533.819763	2139.466309	787.677399	38.360321	2097.707886	791.071411	-576.231812	2127.626221	839.247070	-156.195923	2118.080811	823.540955	-406.766205	1897.538818	836.858887	-274.282806	1905.852661	1164.316895	-269.797913	2153.949219	1053.286743	-278.928528	2096.741211	491.220673	-105.106285	2093.645508	436.321106	-156.055649	2071.602295	253.377197	-118.063721	2048.150879	50.041580	-205.952927	2002.125000	50.217743	-255.054291	2162.338867	38.030937	-209.005951	2122.583496	462.494598	-511.981415	2130.345947	434.067902	-447.610443	2006.633911	302.512146	-475.881622	1860.987671	175.255234	-397.562653	1828.968140	202.522629	-337.465240	1925.900757	79.074066	-407.297668
210	2.09000000	2096.777588	1275.977173	-106.051697	2075.167725	1286.337769	-437.461700	2001.060547	1346.921387	-268.213593	2122.775635	1237.777100	-277.066925	2067.908447	999.998779	4.836793	2008.274292	994.747559	-532.823914	2158.989136	790.657532	37.120499	2099.456177	790.645294	-578.280060	2141.324463	840.144958	-155.241013	2132.187500	827.133484	-406.140564	1911.462036	839.297485	-273.493225	1920.284912	1166.064941	-268.056274	2167.644287	1055.478516	-279.793488	2102.698242	491.448151	-105.342758	2097.504639	436.447479	-156.349091	2073.001465	253.627502	-118.283562	2048.269531	50.185143	-206.147537	2002.121704	50.409069	-255.363144	2162.442383	38.000835	-209.032547	2146.501221	467.116486	-510.203400	2154.912109	439.074707	-445.669403	2036.835938	302.786438	-474.508728	1899.155273	165.890503	-396.403992	1864.647583	191.030670	-336.714417	1970.736206	74.862144	-405.531616
211	2.10000000	2112.297119	1278.065796	-106.433403	2087.355957	1287.529175	-437.905304	2015.395020	1348.090820	-267.829071	2136.908447	1239.408691	-277.815369	2085.633301	1002.268982	5.293668	2016.275391	996.333191	-531.750244	2178.595337	793.458344	35.944216	2101.133179	790.325897	-580.344879	2154.945557	840.748291	-154.158035	2146.400391	830.431641	-405.168365	1925.471680	841.280396	-273.083862	1934.652466	1167.412598	-266.286377	2181.385498	1057.544434	-280.649963	2108.458984	491.616760	-105.614342	2101.249023	436.567200	-156.649796	2074.237061	253.926056	-118.529442	2048.438721	50.360188	-206.377258	2002.231445	50.677071	-255.828613	2162.566162	37.930393	-209.059326	2169.672119	471.378113	-508.303986	2178.482666	443.705627	-443.519012	2066.875488	302.087982	-473.013672	1938.289062	155.554749	-395.045197	1901.542847	178.374649	-335.798523	2016.375610	70.269310	-403.554138
